<?xml version="1.0" encoding="UTF-8" standalone="no"?>
<!-- Created with Inkscape (http://www.inkscape.org/) -->

<svg
   xmlns:dc="http://purl.org/dc/elements/1.1/"
   xmlns:cc="http://creativecommons.org/ns#"
   xmlns:rdf="http://www.w3.org/1999/02/22-rdf-syntax-ns#"
   xmlns:svg="http://www.w3.org/2000/svg"
   xmlns="http://www.w3.org/2000/svg"
   xmlns:sodipodi="http://sodipodi.sourceforge.net/DTD/sodipodi-0.dtd"
   xmlns:inkscape="http://www.inkscape.org/namespaces/inkscape"
   width="155.40359mm"
   height="112.57628mm"
   viewBox="0 0 550.64266 398.89232"
   id="svg2"
   version="1.1"
   inkscape:version="0.91 r13725"
   sodipodi:docname="logo.svg">
  <defs
     id="defs4" />
  <sodipodi:namedview
     id="base"
     pagecolor="#ffffff"
     bordercolor="#666666"
     borderopacity="1.0"
     inkscape:pageopacity="0.0"
     inkscape:pageshadow="2"
     inkscape:zoom="1.484"
     inkscape:cx="45.044784"
     inkscape:cy="176.787"
     inkscape:document-units="px"
     inkscape:current-layer="layer1"
     showgrid="false"
     inkscape:window-width="1920"
     inkscape:window-height="1017"
     inkscape:window-x="-8"
     inkscape:window-y="-8"
     inkscape:window-maximized="1"
     fit-margin-top="0"
     fit-margin-left="0"
     fit-margin-right="0"
     fit-margin-bottom="0" />
  <metadata
     id="metadata7">
    <rdf:RDF>
      <cc:Work
         rdf:about="">
        <dc:format>image/svg+xml</dc:format>
        <dc:type
           rdf:resource="http://purl.org/dc/dcmitype/StillImage" />
        <dc:title />
      </cc:Work>
    </rdf:RDF>
  </metadata>
  <g
     inkscape:label="Ebene 1"
     inkscape:groupmode="layer"
     id="layer1"
     transform="translate(-9.8608701,-635.97117)">
    <path
       style="fill:#000000;fill-opacity:1;stroke:#000000;stroke-opacity:1"
       d="m 259.5608,1033.1433 c 7.71464,-2.7534 10.6236,-6.4593 12.71555,-16.1992 2.25595,-10.5033 3.57018,-27.97478 2.10431,-27.97478 -0.58842,0 -1.06986,-2.4722 -1.06986,-5.49376 0,-6.53839 -3.17659,-10.75624 -8.10084,-10.75624 -3.70415,0 -8.77416,4.57876 -8.77416,7.924 0,1.17584 -1.26562,2.64784 -2.8125,3.27114 -14.67656,5.91371 -24.62991,33.98554 -14.22655,40.12364 2.49648,1.473 4.53905,3.4255 4.53905,4.3389 0,5.2645 7.67204,7.6048 15.625,4.7663 z M 532.4296,807.85153 C 613.29003,779.92191 503.11339,665.68016 372.6858,642.21378 222.98751,615.28023 22.983093,687.29141 14.550083,771.15981 c -0.32821,3.26398 -1.16317,7.89955 -1.8555,10.30126 -10.8588602,37.66977 17.51257,38.84409 58.74122,2.43134 54.476247,-48.11289 98.915647,-74.18832 161.874997,-94.98235 6.875,-2.27066 12.52067,-5.02917 13.17181,-5.11598 72.83718,-9.71098 126.66449,26.20421 198.70794,90.08821 34.5727,30.6571 63.83751,42.05227 87.23905,33.96924 z"
       id="path4147"
       inkscape:connector-curvature="0"
       sodipodi:nodetypes="ssssssscsssssssssss" />
  </g>
</svg>
