<?xml version="1.0" encoding="UTF-8" standalone="no"?>
<svg
   xmlns:dc="http://purl.org/dc/elements/1.1/"
   xmlns:cc="http://creativecommons.org/ns#"
   xmlns:rdf="http://www.w3.org/1999/02/22-rdf-syntax-ns#"
   xmlns:svg="http://www.w3.org/2000/svg"
   xmlns="http://www.w3.org/2000/svg"
   xmlns:sodipodi="http://sodipodi.sourceforge.net/DTD/sodipodi-0.dtd"
   xmlns:inkscape="http://www.inkscape.org/namespaces/inkscape"
   height="32px"
   version="1.1"
   viewBox="0 0 32 32"
   width="32px"
   id="svg11"
   sodipodi:docname="new.svg"
   inkscape:version="0.92.4 (5da689c313, 2019-01-14)">
  <metadata
     id="metadata15">
    <rdf:RDF>
      <cc:Work
         rdf:about="">
        <dc:format>image/svg+xml</dc:format>
        <dc:type
           rdf:resource="http://purl.org/dc/dcmitype/StillImage" />
        <dc:title />
      </cc:Work>
    </rdf:RDF>
  </metadata>
  <sodipodi:namedview
     pagecolor="#ffffff"
     bordercolor="#666666"
     borderopacity="1"
     objecttolerance="10"
     gridtolerance="10"
     guidetolerance="10"
     inkscape:pageopacity="0"
     inkscape:pageshadow="2"
     inkscape:window-width="640"
     inkscape:window-height="480"
     id="namedview13"
     showgrid="false"
     inkscape:zoom="14.584077"
     inkscape:cx="9.3466326"
     inkscape:cy="7.9219444"
     inkscape:current-layer="svg11" />
  <desc
     id="desc4" />
  <defs
     id="defs6" />
  <path
     style="fill:#000000;fill-rule:evenodd;stroke:none;stroke-width:1;fill-opacity:1"
     d="m 21,13 v -3 0 L 15,3 H 4.0027601 C 2.8966663,3 2,3.8983383 2,5.0073299 V 27.99267 C 2,29.101288 2.8909254,30 3.9974219,30 H 19.002578 C 20.105724,30 21,29.101788 21,28.009205 V 26 h 4.493576 c 1.660636,0 3.006848,-1.342264 3.006848,-2.998786 V 15.998786 C 28.500424,14.342602 27.164433,13 25.493576,13 Z m -1,13 v 2.006602 C 20,28.555054 19.552303,29 19.00004,29 H 3.9999602 C 3.4547089,29 3,28.554319 3,28.004543 V 4.995457 C 3,4.4552629 3.4457352,4 3.9955775,4 H 14 V 8.994081 C 14,10.113445 14.894496,11 15.997913,11 H 20 v 2 h -4.493288 c -1.660636,0 -3.0069,1.342264 -3.007,2.998786 l -4.24e-4,7.002428 C 12.499188,24.657398 13.83528,26 15.506136,26 Z M 15,4.5 V 8.9912152 C 15,9.5483517 15.450651,10 15.996739,10 h 3.703212 z m 0.494712,9.5 c -1.101566,0 -1.994934,0.900176 -1.995,1.992017 l -4.24e-4,7.015966 C 13.499222,24.108144 14.401632,25 15.49385,25 h 10.012012 c 1.101566,0 1.994562,-0.900176 1.994562,-1.992017 V 15.992017 C 27.500424,14.891856 26.59808,14 25.505862,14 Z"
     id="document-file-doc"
     inkscape:connector-curvature="0"
     sodipodi:nodetypes="ccccsssssscssssccsssssscssccssssccssccsssssssss" />
  <g
     id="g853"
     transform="translate(0.06856792,3.091474)"
     style="fill:#000000;fill-opacity:1">
    <rect
       y="15.904402"
       x="16.440523"
       height="1"
       width="8"
       id="rect828"
       style="fill:#000000;fill-opacity:1;stroke:none;stroke-width:0.19999999;stroke-miterlimit:4;stroke-dasharray:none;stroke-opacity:1" />
    <rect
       transform="rotate(90)"
       y="-20.940523"
       x="12.404402"
       height="1"
       width="8"
       id="rect828-7"
       style="fill:#000000;fill-opacity:1;stroke:none;stroke-width:0.19999999;stroke-miterlimit:4;stroke-dasharray:none;stroke-opacity:1" />
  </g>
</svg>
